# xmcd CD database file
#
# Track frame offsets:
#	150
#	11920
#	26245
#	40472
#	52185
#	63905
#	76030
#	89392
#	112885
#	127520
#	141075
#	159757
#
# Disc length: 2365 seconds
#
# Revision: 0
# Processed by: cddbd v1.5.2PL0 Copyright (c) Steve Scherf et al.
# Submitted via: CDex 1.70beta2
#
DISCID=90093b0c
DTITLE=Jet Stream - Jet Stream 10 
DYEAR=1900
DGENRE=Lounge
TTITLE0=ミスター・ロンリー
TTITLE1=去らばベルリンの灯
TTITLE2=愛の誓い
TTITLE3=青い灯影のブルース
TTITLE4=白い夜霧のブルース
TTITLE5=魅せられしギター
TTITLE6=ムーンリバー
TTITLE7=ムーンライトセレナーデ
TTITLE8=ワシントン広場の夜はふけて
TTITLE9=酒とバラの日々
TTITLE10=ニューヨークシティセレナーデ
TTITLE11=夢幻飛行
EXTD=
EXTT0=
EXTT1=
EXTT2=
EXTT3=
EXTT4=
EXTT5=
EXTT6=
EXTT7=
EXTT8=
EXTT9=
EXTT10=
EXTT11=
PLAYORDER=
